<svg width="24" height="24" viewBox="0 0 24 24" fill="none" xmlns="http://www.w3.org/2000/svg">
<path fill-rule="evenodd" clip-rule="evenodd" d="M11.9766 0.00115643C13.8234 -0.00406096 14.2125 0.00637383 14.3906 0.0741999C14.5078 0.115939 14.6859 0.230722 14.7844 0.319417C14.8875 0.41333 15.0094 0.585504 15.0563 0.700287C15.1031 0.820287 15.1406 1.0342 15.1406 1.21159C15.1406 1.39942 15.1078 1.58203 15.0516 1.70203C15.0047 1.81159 14.8922 1.97855 14.8078 2.07246C14.7141 2.17159 14.55 2.27594 14.4141 2.3229C14.2641 2.36985 13.9781 2.39594 13.0781 2.39594V3.20463L13.6031 3.29855C13.8938 3.35072 14.3344 3.44985 14.5781 3.51768C14.8219 3.5855 15.2437 3.72637 15.5156 3.83072C15.7875 3.93507 16.2609 4.1542 16.5703 4.32116C16.8797 4.4829 17.3438 4.76463 17.6016 4.94724C17.8594 5.12985 18.2906 5.46898 18.5578 5.69855C18.825 5.93333 19.2891 6.40811 19.5891 6.75246C19.8891 7.09681 20.2828 7.6029 20.4656 7.8742C20.6484 8.1455 20.9344 8.61507 21.0938 8.91768C21.2578 9.22029 21.4734 9.66376 21.5766 9.90898C21.6797 10.1542 21.8344 10.5612 21.9234 10.822C22.0125 11.0777 22.1578 11.5942 22.2422 11.9699C22.3266 12.3403 22.4297 12.8933 22.4719 13.1959C22.5094 13.4985 22.5562 13.942 22.5703 14.1872C22.6031 14.6307 22.6031 14.6307 22.7719 14.7351C22.8609 14.7925 22.9969 14.9229 23.0672 15.022C23.1375 15.1212 23.2219 15.309 23.2547 15.4394C23.2875 15.5699 23.2969 15.7785 23.2828 15.909C23.2641 16.0446 23.1844 16.2533 23.1 16.3942C22.9922 16.5716 22.875 16.6864 22.4766 16.9003H12C1.94062 16.9003 1.51406 16.8951 1.33594 16.8012C1.23281 16.749 1.0875 16.6394 1.0125 16.5559C0.942188 16.4725 0.853125 16.342 0.815625 16.2585C0.778125 16.1803 0.735937 16.0185 0.721875 15.8933C0.703125 15.7733 0.7125 15.5699 0.745312 15.4394C0.773438 15.309 0.867187 15.1107 0.951562 14.9959C1.04062 14.8812 1.17188 14.7559 1.24688 14.7194C1.37813 14.6568 1.38281 14.6359 1.42031 14.1977C1.44375 13.9472 1.49062 13.4985 1.52812 13.1959C1.57031 12.8933 1.67344 12.3403 1.75781 11.9699C1.84219 11.5942 1.9875 11.0777 2.07656 10.822C2.16562 10.5612 2.33438 10.1281 2.44688 9.85681C2.55938 9.5855 2.77969 9.13681 2.92969 8.8655C3.07969 8.5942 3.35156 8.1455 3.53438 7.8742C3.71719 7.6029 4.09688 7.11246 4.38281 6.78377C4.66406 6.46029 5.10938 6.00116 5.36719 5.77159C5.625 5.54203 6.00469 5.22898 6.21094 5.07768C6.41719 4.92637 6.82969 4.6655 7.125 4.49333C7.42031 4.32116 7.85156 4.09681 8.08594 3.99768C8.31563 3.89333 8.76094 3.72637 9.07031 3.62724C9.37969 3.52811 9.92344 3.39246 10.9219 3.20463V2.39594H10.3687C10.0219 2.39594 9.73594 2.36985 9.58594 2.3229C9.45 2.27594 9.28594 2.17159 9.19219 2.07246C9.10781 1.97855 8.99531 1.81159 8.94844 1.70203C8.89219 1.58203 8.85938 1.39942 8.85938 1.20637C8.85938 1.0342 8.89688 0.820287 8.94375 0.700287C8.99063 0.585504 9.1125 0.41333 9.21563 0.319417C9.31406 0.230722 9.48281 0.115939 9.58594 0.0794173C9.73594 0.0168086 10.2047 0.00115643 11.9766 0.00115643ZM9.5625 1.22203C9.5625 1.3629 9.59531 1.43072 9.68906 1.50898C9.81563 1.61333 9.88125 1.61855 12 1.61855C14.1187 1.61855 14.1844 1.61333 14.3109 1.50898C14.4047 1.43072 14.4375 1.3629 14.4375 1.22203C14.4375 1.10724 14.4 0.997678 14.3438 0.935069C14.2547 0.835939 14.1891 0.830722 12 0.830722C9.81094 0.830722 9.74531 0.835939 9.65625 0.935069C9.6 0.997678 9.5625 1.10724 9.5625 1.22203ZM11.6719 3.17855H12.3281V2.39594H11.6719V3.17855ZM9.9375 4.19594C9.71719 4.2429 9.25313 4.38898 8.90625 4.5142C8.55937 4.64463 7.99687 4.89507 7.66406 5.07768C7.32656 5.26029 6.83437 5.57333 6.5625 5.77681C6.29063 5.97507 5.86875 6.32985 5.625 6.55942C5.38125 6.78377 5.025 7.15942 4.83281 7.38377C4.64062 7.60811 4.34062 8.00463 4.15781 8.2655C3.97969 8.52116 3.72187 8.93333 3.58594 9.17855C3.45 9.42377 3.25781 9.80985 3.15469 10.0394C3.05156 10.269 2.8875 10.6759 2.79375 10.9368C2.7 11.2029 2.56406 11.662 2.48906 11.9542C2.41406 12.2516 2.32031 12.6899 2.28281 12.9351C2.24063 13.1803 2.18438 13.6238 2.15625 13.9264C2.13281 14.229 2.10938 14.6046 2.10938 14.7612C2.11406 14.9803 2.09063 15.0794 2.01094 15.1838C1.95 15.2725 1.84219 15.3351 1.72969 15.3559C1.61719 15.3768 1.51875 15.429 1.47656 15.502C1.43906 15.5699 1.40625 15.669 1.40625 15.7264C1.40156 15.7838 1.44375 15.8933 1.5 15.9716L1.59375 16.1177H22.4062C22.5562 15.8933 22.5984 15.7838 22.5984 15.7264C22.5984 15.669 22.5562 15.5646 22.5047 15.4916L22.4156 15.3612L3 15.3351C2.85 15.1107 2.80781 15.0012 2.80781 14.9438C2.80781 14.8864 2.85 14.782 2.90156 14.709L2.99062 14.5785L21.8906 14.5525C21.8484 13.9681 21.7922 13.5038 21.7406 13.1438C21.6891 12.7838 21.5859 12.2516 21.5109 11.9542C21.4359 11.662 21.2906 11.182 21.1828 10.8846C21.0797 10.5925 20.8875 10.1281 20.7562 9.85681C20.625 9.5855 20.4094 9.17333 20.2781 8.94376C20.1422 8.7142 19.8984 8.33855 19.7297 8.10898C19.5656 7.87942 19.275 7.50898 19.0781 7.27942C18.8859 7.05507 18.5156 6.67942 18.2578 6.44985C18 6.22029 17.5969 5.89159 17.3672 5.71942C17.1328 5.55246 16.6828 5.2655 16.3594 5.08811C16.0359 4.91072 15.4781 4.65507 15.1172 4.52463C14.7563 4.38898 14.25 4.23246 13.9922 4.17507C13.7344 4.11768 13.3172 4.04463 13.0687 4.01855C12.8156 3.98724 12.3 3.96637 11.9203 3.96637C11.5359 3.97159 11.025 4.0029 10.7812 4.03942C10.5375 4.07594 10.1578 4.14376 9.9375 4.19594ZM19.8047 17.709L20.0625 17.8238C20.2125 17.8864 20.4375 18.0533 20.5922 18.2151C20.7797 18.4029 20.9109 18.5959 21 18.8046C21.0703 18.9768 21.1406 19.1542 21.1547 19.1959C21.1641 19.2429 21.2672 19.2899 21.4031 19.3159C21.5297 19.342 21.7922 19.4307 21.9844 19.5142C22.1766 19.5977 22.4203 19.7281 22.5281 19.8064C22.6313 19.8899 22.8094 20.0359 22.9172 20.1351C23.0297 20.2342 23.2125 20.4585 23.3297 20.6307C23.4469 20.8029 23.6109 21.0951 23.6859 21.2829C23.7656 21.4707 23.8688 21.7838 23.9156 21.9872C23.9719 22.2429 24 22.5507 24 23.6829L23.7281 23.9959H0.28125L0 23.6829V23.0568C0 22.6707 0.028125 22.2846 0.075 22.0499C0.117188 21.8464 0.220313 21.5072 0.304688 21.309C0.384375 21.1055 0.553125 20.8029 0.670313 20.6307C0.7875 20.4585 0.975 20.2342 1.0875 20.1299C1.2 20.0255 1.41562 19.8533 1.57031 19.7542C1.725 19.6499 1.96875 19.5194 2.10938 19.4672C2.25 19.4099 2.47031 19.342 2.59688 19.3212C2.73281 19.2951 2.83594 19.2429 2.85 19.1959C2.85938 19.1542 2.91563 18.9977 2.97188 18.8568C3.02813 18.7107 3.16875 18.4812 3.28125 18.3403C3.39844 18.2046 3.57656 18.0325 3.67969 17.9646C3.78281 17.8968 3.98438 17.8081 4.125 17.7664C4.35 17.6985 5.39062 17.6881 19.8047 17.709ZM3.9375 18.7159C3.87188 18.7681 3.77344 18.8933 3.7125 18.9925C3.65625 19.0916 3.60938 19.1855 3.60938 19.2064C3.60938 19.2325 7.38281 19.2481 12 19.2481C16.6125 19.2481 20.3906 19.2325 20.3906 19.2064C20.3906 19.1855 20.3438 19.0864 20.2828 18.9872C20.2266 18.8881 20.1047 18.7525 20.0156 18.6846C19.9266 18.6168 19.7766 18.5438 19.6875 18.5177C19.5844 18.4864 16.6172 18.4655 11.9766 18.4655C5.54531 18.4707 4.40156 18.4812 4.24219 18.5438C4.13906 18.5855 4.00313 18.6638 3.9375 18.7159ZM2.13281 20.3125C1.95 20.4064 1.67812 20.6099 1.52812 20.7664C1.37812 20.9229 1.19531 21.142 1.12031 21.2568C1.05 21.3716 0.9375 21.6272 0.867188 21.8307C0.782812 22.0812 0.73125 22.3472 0.7125 22.6812L0.679688 23.1612H23.2969C23.2969 22.6551 23.2641 22.3577 23.2219 22.1699C23.1844 21.982 23.0766 21.6794 22.9922 21.4916C22.8984 21.2933 22.7109 21.022 22.5375 20.8342C22.3406 20.6151 22.125 20.4481 21.8906 20.3229C21.6984 20.2238 21.4031 20.1142 21.2344 20.0829C21.0328 20.0516 17.9062 20.0359 11.9531 20.0359C6.87187 20.0412 2.86406 20.062 2.71875 20.0881C2.57812 20.1142 2.31094 20.2133 2.13281 20.3125Z" fill="#141414"/>
</svg>
