<svg width="26" height="24" viewBox="0 0 26 24" fill="none" xmlns="http://www.w3.org/2000/svg">
<path fill-rule="evenodd" clip-rule="evenodd" d="M6.7898 0.000511785C7.01832 -0.00484536 7.3484 0.0326546 7.52105 0.0755118C7.69879 0.118369 7.97809 0.204083 8.14566 0.263012C8.31324 0.327297 8.5773 0.450512 8.72965 0.54694C8.88199 0.638012 9.17652 0.88444 9.38473 1.09337C9.59293 1.29694 9.79098 1.55408 9.8316 1.65587C9.89254 1.81123 9.89254 1.87015 9.83668 1.99873C9.80113 2.08444 9.70973 2.18623 9.62848 2.22373C9.5523 2.26658 9.44059 2.28265 9.37457 2.26658C9.31363 2.24515 9.08004 2.04694 8.8566 1.82194C8.63316 1.59158 8.3234 1.34515 8.17105 1.2648C8.01871 1.18444 7.7648 1.08265 7.61246 1.0398C7.45504 0.99694 7.1148 0.95944 6.82535 0.95944C6.5359 0.95944 6.19566 0.99694 6.03824 1.0398C5.8859 1.08265 5.63199 1.18444 5.47965 1.2648C5.3273 1.34515 5.05309 1.55944 4.87027 1.74158C4.66207 1.95051 4.47418 2.2023 4.3523 2.43801C4.25074 2.64158 4.12887 2.96301 4.08824 3.15587C4.01715 3.46123 4.00699 4.59694 4.00699 21.8791L3.89019 22.0023C3.81572 22.0809 3.71923 22.1219 3.60074 22.1255C3.47379 22.1255 3.38746 22.0827 3.1691 21.8416V12.488C3.1691 3.56301 3.17418 3.11301 3.26051 2.80765C3.31129 2.63087 3.41793 2.34158 3.49918 2.1648C3.58043 1.98801 3.74801 1.69873 3.87496 1.52194C4.00191 1.34515 4.25074 1.07194 4.4234 0.916583C4.60113 0.761226 4.92613 0.536226 5.14957 0.423726C5.37301 0.305869 5.73863 0.166583 5.96207 0.107655C6.18551 0.0540832 6.55621 0.00586893 6.78473 0.000511785H6.7898ZM15.7933 10.5005C20.8105 10.4952 22.1156 10.5112 22.3187 10.5648C22.4558 10.6077 22.6945 10.7094 22.8468 10.7952C22.9941 10.8809 23.2328 11.0684 23.3699 11.2184C23.5121 11.3684 23.6949 11.6469 23.7964 11.8612C23.8879 12.0648 23.9894 12.3916 24.0199 12.5844C24.0453 12.7773 24.0707 13.5969 24.0707 15.8791L24.3601 15.938C24.5226 15.9755 24.7562 16.0505 24.8832 16.1148C25.0101 16.1737 25.2031 16.3077 25.3148 16.4041C25.4265 16.5059 25.589 16.7041 25.6804 16.8487C25.7668 16.9934 25.8785 17.2452 25.9191 17.4059C25.9902 17.663 26.0004 18.0219 25.975 22.4148L25.8328 22.7202C25.7566 22.8916 25.589 23.1541 25.4519 23.3041C25.3199 23.4541 25.1421 23.6202 25.0609 23.6737C24.9746 23.7273 24.7613 23.8237 24.5785 23.8827C24.2789 23.9844 24.1316 23.9952 21.7601 23.9952L21.4554 23.6684L21.43 20.6202L12.0457 20.5934L11.9136 20.4594C11.8171 20.363 11.7765 20.2719 11.7765 20.138C11.7765 20.0041 11.8171 19.913 12.0457 19.6827H22.0293L22.2984 19.9505L22.2933 23.0309H23.3089C24.1976 23.0309 24.35 23.0202 24.5125 22.9291C24.6191 22.8755 24.7816 22.7416 24.8679 22.6344C24.9593 22.5273 25.0558 22.3505 25.0863 22.238C25.1168 22.1255 25.1371 21.1505 25.1371 19.8969C25.1371 17.8559 25.132 17.7434 25.0304 17.513C24.9746 17.3791 24.8882 17.2237 24.8425 17.1702C24.7968 17.1166 24.6394 17.0148 24.5023 16.9452C24.2941 16.838 24.1671 16.8166 23.766 16.8166C23.5019 16.8166 23.1972 16.8434 23.0906 16.8702C22.989 16.9023 22.8062 17.0148 22.6894 17.1219C22.5777 17.2344 22.4507 17.4059 22.4101 17.4969C22.3746 17.5934 22.3289 17.8719 22.3136 18.113C22.2882 18.4612 22.2578 18.5844 22.1714 18.6809C22.1004 18.7612 22.0089 18.8041 21.8871 18.8041C21.7703 18.8041 21.6687 18.7612 21.5925 18.6809C21.5214 18.6059 21.4656 18.4666 21.4504 18.3166C21.43 18.1827 21.4453 17.9041 21.4757 17.7005C21.5062 17.4916 21.5875 17.2023 21.6535 17.0577C21.7195 16.9077 21.8871 16.6719 22.0242 16.5273C22.1562 16.3827 22.405 16.1952 22.5726 16.1094C22.7402 16.0291 22.923 15.9594 22.9789 15.9594C23.0347 15.9594 23.1109 15.938 23.1464 15.9166C23.1972 15.8898 23.2074 15.5416 23.1972 14.2452C23.182 12.6755 23.1769 12.6005 23.0652 12.3434C22.9992 12.1934 22.8621 11.9844 22.7605 11.8719C22.6589 11.7594 22.4812 11.6148 22.3695 11.5505C22.1664 11.4327 22.1308 11.4327 16.3011 11.4059V16.7094L16.1742 16.8434C16.0879 16.9344 15.9964 16.9773 15.8695 16.9773C15.7476 16.9773 15.6511 16.9344 15.4379 16.7094V11.4059L12.4519 11.4166C9.50152 11.4327 9.47106 11.4327 9.26793 11.5505C9.15621 11.6148 8.97848 11.7594 8.87691 11.8719C8.77535 11.9844 8.63824 12.1934 8.57223 12.3434C8.47574 12.5737 8.45543 12.7237 8.4402 13.4148C8.41988 14.1487 8.40973 14.2291 8.31324 14.3416C8.23876 14.4237 8.14228 14.4648 8.02379 14.4648C7.89684 14.4648 7.81051 14.4219 7.7191 14.3202C7.59215 14.1862 7.59215 14.1648 7.59215 13.3452C7.59215 12.6702 7.61246 12.4452 7.68863 12.2094C7.73941 12.0487 7.84098 11.8077 7.91715 11.6737C7.98824 11.5452 8.15074 11.3309 8.2777 11.2023C8.40465 11.0684 8.60777 10.9023 8.73473 10.8273C8.86168 10.7469 9.0902 10.6452 9.24254 10.5916C9.50152 10.5059 9.98395 10.5005 15.7933 10.5005ZM8.12535 15.9219C8.78043 15.9327 8.82613 15.9434 9.15113 16.1094C9.35426 16.2112 9.59293 16.388 9.73004 16.5327C9.85699 16.6773 10.0195 16.9077 10.0855 17.0577C10.1515 17.2023 10.2277 17.4594 10.2582 17.6202C10.2886 17.7916 10.3039 18.5094 10.2836 20.738L10.1414 20.8666C10.0652 20.9416 9.93824 20.9952 9.85191 20.9952C9.75543 20.9952 9.65387 20.9469 9.44566 20.7273V19.3184C9.44566 18.2416 9.43043 17.8505 9.37457 17.6469C9.32887 17.4916 9.2273 17.3041 9.13082 17.1969C9.03941 17.1005 8.89215 16.9827 8.8109 16.9344C8.70934 16.8755 8.48082 16.8434 8.09996 16.8273C7.68356 16.8112 7.49059 16.8273 7.33824 16.8916C7.22652 16.9344 7.0691 17.0255 6.98785 17.0952C6.9066 17.1648 6.78473 17.3362 6.71871 17.4862C6.60191 17.7541 6.60191 17.7702 6.60191 19.8969C6.60191 21.1505 6.62223 22.1255 6.6527 22.238C6.68316 22.3505 6.77965 22.5273 6.86598 22.6344C6.95738 22.7416 7.11988 22.8755 7.22145 22.9291C7.40934 23.0255 7.65816 23.0309 13.5336 23.0309C18.4898 23.0309 19.6832 23.0469 19.8152 23.1005C19.9117 23.1434 20.0132 23.2398 20.0539 23.3309C20.1097 23.4648 20.1097 23.513 20.0539 23.663C20.0132 23.7648 19.932 23.8773 19.866 23.9202C19.7695 23.9844 18.7996 23.9952 13.6199 23.9952C7.49566 23.9952 7.49059 23.9952 7.16051 23.8827C6.9777 23.8184 6.74918 23.7112 6.6527 23.6469C6.55621 23.5827 6.37848 23.4166 6.2566 23.2773C6.1398 23.1434 6.00777 22.9505 5.95699 22.8541C5.91129 22.763 5.84527 22.5594 5.80973 22.4148C5.75387 22.2112 5.73863 21.6112 5.73863 19.9505C5.73863 18.7184 5.76402 17.6523 5.78941 17.5237C5.81988 17.4005 5.89098 17.1862 5.95191 17.0416C6.01285 16.9023 6.18043 16.6666 6.32262 16.5219C6.45973 16.3719 6.66793 16.2059 6.77965 16.1469C6.89137 16.0934 7.08434 16.013 7.21129 15.9755C7.35855 15.9327 7.67848 15.9112 8.12535 15.9219ZM4.68238 23.0577L4.80426 23.2023C4.87535 23.288 4.92613 23.4219 4.92613 23.513C4.92613 23.6202 4.87535 23.7273 4.62144 23.9952H0.305039L0.152695 23.8344C0.0612887 23.738 0.000351159 23.6148 0.000351159 23.5237C-0.00472697 23.4434 0.0460543 23.3148 0.101914 23.2344C0.157773 23.1541 0.259336 23.0791 0.320273 23.0684C0.381211 23.0523 1.38668 23.0469 4.68238 23.0577ZM10.2836 3.35408C10.4765 3.3648 10.8218 3.44515 11.0453 3.52551C11.2687 3.60587 11.5886 3.76658 11.7511 3.87908C11.9187 3.99694 12.1675 4.2273 12.3097 4.39337C12.4519 4.55944 12.6398 4.83801 12.7312 5.00944C12.8226 5.18087 12.9394 5.51837 13.0004 5.75408C13.0765 6.07551 13.1019 6.34873 13.1019 6.83623C13.1019 7.45765 13.0968 7.50587 12.8582 7.7898H7.32301L7.19098 7.65587C7.05895 7.52194 7.05387 7.51123 7.05895 6.79873C7.05895 6.31658 7.08603 5.96837 7.14019 5.75408C7.1859 5.5773 7.29254 5.2773 7.38395 5.0898C7.47027 4.9023 7.67848 4.59158 7.84606 4.39873C8.01363 4.21123 8.2777 3.9648 8.43004 3.85765C8.58238 3.75051 8.86676 3.60051 9.06481 3.53087C9.25777 3.46658 9.53199 3.39158 9.67418 3.3648C9.81129 3.34337 10.0855 3.33801 10.2836 3.35408ZM9.16637 4.47908C8.99879 4.55944 8.73981 4.74694 8.59254 4.89694C8.40465 5.07908 8.26246 5.28801 8.13551 5.56658C7.97301 5.92015 7.94762 6.02194 7.93746 6.43444L7.92223 6.90587H12.2386C12.2386 6.42908 12.2031 6.15051 12.1625 5.97908C12.1218 5.81301 12.0457 5.58265 11.9898 5.47015C11.939 5.36301 11.7816 5.14337 11.6496 4.98265C11.4837 4.79337 11.2823 4.63623 11.0453 4.51123C10.8269 4.39873 10.573 4.31301 10.38 4.29158C10.2074 4.27015 9.93316 4.27015 9.77066 4.28623C9.60309 4.30765 9.33395 4.39337 9.16637 4.47908Z" fill="#141414"/>
</svg>
