<svg width="24" height="24" viewBox="0 0 24 24" fill="none" xmlns="http://www.w3.org/2000/svg">
<path fill-rule="evenodd" clip-rule="evenodd" d="M8.92969 0.121875C8.80781 0.239062 8.79844 0.271875 8.80781 0.590625L8.8125 0.9375C7.0875 1.8 6.54844 2.09062 6.50625 2.1375C6.43125 2.21719 6.42188 2.4 6.4125 3.98438L6.39844 5.74219C5.32969 6.28594 4.96875 6.49219 4.9125 6.55313C4.80469 6.65625 4.80469 6.66094 4.79062 8.2875C4.78125 9.3375 4.79531 9.975 4.82344 10.0875C4.86094 10.2188 4.91719 10.2844 5.02969 10.3406C5.10938 10.3828 5.22188 10.4016 5.27344 10.3875C5.325 10.3734 5.40938 10.3313 5.46094 10.2938C5.55 10.2281 5.55469 10.1578 5.57812 8.63906L5.60156 7.05469C6.96562 6.36094 7.0875 6.28125 7.14844 6.15C7.20469 6.02812 7.21875 5.71406 7.21875 4.32187V2.64844L9.21094 1.65469L11.2031 2.64844V6.14062C11.4 6.3375 11.4891 6.375 11.6016 6.375C11.7188 6.375 11.8031 6.3375 11.8828 6.25781L12 6.14062C12 2.62031 11.9906 2.25469 11.9344 2.17969C11.8969 2.12812 11.3625 1.83281 10.7437 1.52344L9.61406 0.960938C9.58594 0.295313 9.56719 0.225 9.46875 0.121875C9.39062 0.040625 9.30312 0 9.20625 0C9.1125 0 9.01406 0.046875 8.92969 0.121875ZM1.78125 15.2203C1.71563 15.2297 1.57031 15.2625 1.45312 15.2906C1.33594 15.3188 1.125 15.4078 0.984375 15.4922C0.84375 15.5766 0.6375 15.75 0.525 15.8719C0.4125 15.9984 0.271875 16.2047 0.20625 16.3359C0.145313 16.4625 0.065625 16.7156 0.0375 16.8984C-0.0046875 17.1469 -0.0046875 17.3016 0.0375 17.5312C0.0703125 17.7 0.15 17.9531 0.220312 18.0938C0.290625 18.2344 0.459375 18.4641 0.595312 18.5953C0.740625 18.7406 0.965625 18.9 1.13906 18.9797C1.29844 19.0547 1.46719 19.125 1.51406 19.1437C1.58906 19.1719 1.59375 19.3078 1.59375 21.1875V23.2031H0.271875C0.0609375 23.4234 0 23.5359 0 23.6016C0 23.6672 0.0515625 23.7797 0.117188 23.8594L0.234375 24H23.7656C23.9484 23.7797 24 23.6672 24 23.6016C24 23.5359 23.9391 23.4234 23.8594 23.3438C23.7234 23.2078 23.7094 23.2031 23.25 23.2031H22.7812V20.7656C23.25 20.55 23.4422 20.4094 23.55 20.2875C23.6531 20.1797 23.7891 19.9688 23.8547 19.8281C23.9531 19.6172 23.9766 19.5 23.9766 19.1953C23.9719 18.8859 23.9484 18.7734 23.8453 18.5484C23.775 18.4031 23.6297 18.1922 23.5219 18.0797C23.4094 17.9719 23.2172 17.8266 23.0859 17.7656C22.9125 17.6766 22.7578 17.6438 22.4766 17.6344C22.1859 17.6203 22.0453 17.6391 21.8438 17.7141C21.6938 17.7656 21.4828 17.9016 21.3375 18.0328C21.1875 18.1688 21.0328 18.3609 20.9625 18.5156C20.8547 18.7359 20.8359 18.8344 20.8359 19.1953C20.8359 19.5562 20.8547 19.6547 20.9625 19.875C21.0281 20.0156 21.1875 20.2266 21.3141 20.3438C21.4406 20.4609 21.6422 20.5969 21.7641 20.6484L21.9844 20.7422V23.2031H12L12.0234 21.5578C12.3891 21.4359 12.5906 21.3328 12.6984 21.2578C12.8109 21.1781 12.9844 21.0281 13.0828 20.9156C13.1859 20.8078 13.3172 20.6203 13.3781 20.4938C13.4391 20.3719 13.5141 20.1562 13.5469 20.0156C13.5844 19.8656 13.5984 19.6313 13.5797 19.4531C13.5656 19.2844 13.5047 19.0219 13.4484 18.8672C13.3875 18.7125 13.2563 18.4828 13.1531 18.3563C13.0453 18.2297 12.8578 18.0562 12.7266 17.9672C12.6 17.8781 12.375 17.7656 12.2344 17.7141C12.0562 17.6484 11.8594 17.6203 11.6016 17.6203C11.3438 17.6203 11.1469 17.6484 10.9688 17.7141C10.8281 17.7656 10.6078 17.8781 10.4766 17.9672C10.35 18.0562 10.1578 18.2297 10.05 18.3563C9.94687 18.4828 9.81094 18.7125 9.75469 18.8672C9.69375 19.0219 9.63281 19.2938 9.61875 19.4766C9.60469 19.6781 9.61875 19.8937 9.65625 20.0391C9.68906 20.1656 9.76875 20.3766 9.83438 20.5078C9.9 20.6344 10.05 20.8453 10.1672 20.9719C10.2844 21.0938 10.4672 21.2484 10.5703 21.3094C10.6734 21.3703 10.8562 21.45 10.9828 21.4922L11.2031 21.5625V23.2031H2.39062L2.41406 19.1578C2.77969 19.0406 2.97656 18.9422 3.08906 18.8672C3.20156 18.7875 3.37969 18.6328 3.48281 18.5156C3.59063 18.3984 3.74063 18.1688 3.81563 18C3.92344 17.7656 3.96094 17.6109 3.975 17.3203C3.98906 17.0672 3.97031 16.8609 3.92344 16.6875C3.88125 16.5469 3.79688 16.3359 3.73125 16.2188C3.67031 16.1016 3.49687 15.8953 3.35625 15.7594C3.21094 15.6281 2.98125 15.4641 2.85 15.4031C2.71406 15.3375 2.46563 15.2625 2.29688 15.2391C2.12812 15.2109 1.96875 15.1922 1.94531 15.1922C1.91719 15.1969 1.84687 15.2063 1.78125 15.2203ZM1.75781 16.0312C1.86094 16.0125 2.02031 16.0031 2.10938 16.0172C2.19844 16.0312 2.34844 16.0641 2.4375 16.0922C2.52656 16.1203 2.68594 16.2188 2.78438 16.3078C2.8875 16.4016 3.01875 16.5797 3.075 16.7109C3.15 16.8672 3.1875 17.0312 3.1875 17.2031C3.1875 17.3719 3.15 17.5406 3.07969 17.6953C3.01875 17.8266 2.87813 18.0094 2.76094 18.1078C2.64844 18.2062 2.47031 18.3094 2.36719 18.3328C2.26406 18.3609 2.08594 18.3844 1.96875 18.3844C1.85156 18.3844 1.67344 18.3469 1.57031 18.3047C1.46719 18.2625 1.32187 18.1828 1.24688 18.1266C1.17188 18.0703 1.05937 17.9438 0.998437 17.8453C0.9375 17.7516 0.867187 17.5734 0.834375 17.4469C0.796875 17.2828 0.796875 17.1656 0.834375 16.9688C0.8625 16.8281 0.951563 16.6219 1.03125 16.5094C1.10625 16.4016 1.26094 16.2563 1.37344 16.1906C1.48125 16.1203 1.65469 16.05 1.75781 16.0312ZM11.0859 18.5297C11.2453 18.4547 11.4094 18.4219 11.6016 18.4219C11.8172 18.4219 11.9437 18.45 12.1359 18.5484C12.2766 18.6234 12.45 18.7547 12.525 18.8438C12.5953 18.9328 12.6938 19.1109 12.7313 19.2422C12.7828 19.3922 12.8016 19.5609 12.7875 19.7109C12.7734 19.8375 12.7172 20.0297 12.6656 20.1328C12.6188 20.2359 12.4922 20.3906 12.3937 20.4797C12.2906 20.5688 12.1359 20.6719 12.0469 20.7094C11.9578 20.7469 11.7656 20.7797 11.625 20.7844C11.4844 20.7844 11.2734 20.7516 11.1562 20.7094C11.0391 20.6625 10.8609 20.5406 10.7531 20.4281C10.65 20.3156 10.5234 20.1187 10.4766 19.9922C10.4156 19.8234 10.3969 19.6875 10.4156 19.5C10.4297 19.3594 10.4719 19.1766 10.5094 19.1016C10.5516 19.0219 10.6406 18.8906 10.7156 18.8016C10.7906 18.7125 10.9594 18.5906 11.0859 18.5297ZM21.9891 18.525C22.1203 18.4313 22.1953 18.4172 22.4297 18.4313C22.6359 18.4406 22.7531 18.4781 22.8703 18.5625C22.9594 18.6281 23.0719 18.7641 23.1188 18.8672C23.1656 18.9703 23.2031 19.1156 23.2031 19.1953C23.2031 19.2703 23.1562 19.4297 23.1 19.5422C23.0391 19.6594 22.9406 19.7906 22.875 19.8375C22.8094 19.8844 22.6734 19.9453 22.5703 19.9688C22.4531 19.9969 22.3172 19.9969 22.2094 19.9688C22.1109 19.9406 21.9562 19.8516 21.8625 19.7672C21.7734 19.6875 21.675 19.5422 21.6469 19.4531C21.6187 19.3641 21.6094 19.1953 21.6234 19.0781C21.6375 18.9609 21.6891 18.8156 21.7406 18.75C21.7875 18.6844 21.9 18.5813 21.9891 18.525ZM19.4531 2.44219C19.3922 2.46562 19.3125 2.52187 19.2797 2.56875C19.2469 2.61094 19.2188 2.78437 19.2188 2.9625V3.28125C18.9469 3.35156 17.9203 3.60937 16.7578 3.9C15.1594 4.29844 14.6203 4.45312 14.5312 4.52812L14.4141 4.63125C14.3906 6.53906 14.4047 6.85312 14.4469 6.95625C14.4797 7.03594 14.5688 7.12031 14.6484 7.14844C14.7234 7.18125 14.8406 7.19063 14.9016 7.17656C14.9625 7.1625 15.0563 7.09688 15.1031 7.03125C15.1828 6.92812 15.1922 6.825 15.1875 6.02344V5.13281C18.2203 4.35469 19.1297 4.125 19.1625 4.125C19.2047 4.125 19.2188 4.84219 19.2188 7.54688V10.9688C19.3828 11.1187 20.0953 11.4141 20.9062 11.7188L22.3828 12.2719L22.4297 16.6031C22.6125 16.7438 22.7203 16.7859 22.7953 16.7812C22.8656 16.7812 22.9547 16.7672 22.9969 16.7438C23.0391 16.725 23.1047 16.6547 23.1375 16.5797C23.1891 16.4766 23.2031 15.9984 23.2031 14.1562V11.8594C23.0297 11.6859 22.4438 11.4375 21.5016 11.0859L20.0156 10.5234C20.0156 4.2 20.0016 2.77969 19.9688 2.68125C19.9406 2.5875 19.8703 2.50312 19.7812 2.46094C19.7016 2.42344 19.6266 2.39062 19.6078 2.39531C19.5844 2.39531 19.5187 2.41875 19.4531 2.44219ZM8.29688 3.22031C8.25937 3.23437 8.17969 3.29063 8.11875 3.34688C8.02031 3.44063 8.01562 3.48281 8.01562 3.99844C8.01562 4.51875 8.02031 4.55156 8.13281 4.66406C8.20781 4.73906 8.30156 4.78125 8.40469 4.78125C8.50781 4.78125 8.59219 4.74375 8.67188 4.65938C8.775 4.55156 8.78906 4.49062 8.80313 4.11094C8.8125 3.87187 8.79844 3.6 8.77031 3.50625C8.73281 3.37031 8.68125 3.30938 8.55469 3.25781C8.46562 3.22031 8.38594 3.1875 8.38125 3.19219C8.37187 3.19219 8.33438 3.20625 8.29688 3.22031ZM9.8625 3.23438C9.80625 3.25781 9.72656 3.32344 9.68438 3.38437C9.62344 3.46875 9.60938 3.60938 9.60938 4.02188C9.60938 4.51875 9.61406 4.55156 9.72656 4.66406C9.80469 4.74219 9.89531 4.78125 9.99844 4.78125C10.0781 4.78125 10.1813 4.75312 10.2234 4.72031C10.2656 4.6875 10.3219 4.61719 10.35 4.56094C10.3828 4.5 10.4062 4.25625 10.4062 4.00781C10.4062 3.76406 10.3828 3.51094 10.3594 3.44531C10.3313 3.37969 10.2375 3.29531 10.1484 3.25781C10.0594 3.22031 9.97969 3.1875 9.975 3.19219C9.96562 3.19219 9.91406 3.21094 9.8625 3.23438ZM8.10938 5.73281C8.00156 5.83594 7.99688 5.86875 8.00625 6.40313C8.01094 6.91875 8.02031 6.97031 8.11875 7.06406C8.17969 7.11562 8.26875 7.17188 8.32031 7.17656C8.37187 7.18594 8.47031 7.17656 8.54531 7.15781C8.62969 7.13437 8.69531 7.07344 8.74219 6.96094C8.78438 6.85781 8.8125 6.64688 8.8125 6.4125C8.8125 6.19688 8.79375 5.95312 8.76562 5.87344C8.74219 5.78906 8.67656 5.69531 8.625 5.67188C8.57344 5.64375 8.46094 5.625 8.37656 5.625C8.27344 5.625 8.17969 5.6625 8.10938 5.73281ZM9.70312 5.74687C9.60938 5.85938 9.6 5.925 9.60469 6.40313C9.60938 6.89063 9.61875 6.94687 9.71719 7.05C9.77344 7.11562 9.8625 7.17188 9.91406 7.17656C9.96562 7.18594 10.0641 7.17656 10.1391 7.15781C10.2141 7.13906 10.2937 7.06875 10.3359 6.98438C10.3828 6.89062 10.4062 6.69844 10.4062 6.39844C10.4062 6.11719 10.3828 5.90625 10.3406 5.82656C10.3078 5.75156 10.2422 5.68125 10.2 5.6625C10.1578 5.63906 10.0547 5.625 9.96563 5.625C9.84844 5.625 9.77344 5.65781 9.70312 5.74687ZM16.1719 5.69063C16.1344 5.72344 16.0734 5.80781 16.0406 5.87344C16.0125 5.94375 15.9844 6.17812 15.9844 6.39844C15.9844 6.64687 16.0125 6.85781 16.0547 6.96094C16.1016 7.07344 16.1672 7.13437 16.2562 7.15781C16.3266 7.17656 16.425 7.18594 16.4766 7.17656C16.5281 7.17188 16.6172 7.11562 16.6781 7.06406C16.7766 6.96562 16.7859 6.92344 16.7859 6.39844C16.7859 5.87344 16.7766 5.82656 16.6781 5.73281C16.6078 5.6625 16.5141 5.625 16.4062 5.62969C16.3172 5.62969 16.2094 5.65313 16.1719 5.69063ZM17.7141 5.74687C17.6109 5.85938 17.6016 5.90156 17.6016 6.39844C17.6016 6.9 17.6063 6.9375 17.7188 7.05C17.8031 7.13906 17.8828 7.17656 18 7.17656C18.1172 7.17656 18.1969 7.13906 18.2812 7.05C18.3937 6.9375 18.3984 6.9 18.3984 6.39844C18.3984 5.89687 18.3937 5.85938 18.2812 5.74687C18.1969 5.65781 18.1172 5.625 17.9953 5.625C17.8781 5.625 17.7937 5.6625 17.7141 5.74687ZM11.4047 7.25156C11.3719 7.26562 11.3109 7.33594 11.2734 7.41094C11.2125 7.52813 11.2031 8.13281 11.2031 12.0469V16.5469C11.3953 16.7391 11.4891 16.7812 11.5781 16.7812C11.6531 16.7812 11.7516 16.7672 11.7938 16.7438C11.8359 16.725 11.9016 16.6547 11.9344 16.5797C11.9906 16.4766 12 15.7031 12 12.2812V8.10938C12.2016 8.16094 13.4484 8.47031 14.9062 8.83594L17.5547 9.49688C17.5969 20.3156 17.6156 22.1297 17.6531 22.1953C17.6812 22.2469 17.7797 22.3172 17.8641 22.3547C18.0047 22.4109 18.0422 22.4109 18.1781 22.3406C18.2859 22.2891 18.3422 22.2188 18.375 22.0922C18.4031 21.975 18.4172 19.6266 18.4078 15.4781L18.3984 9.0375C18.1922 8.85469 17.4328 8.64844 14.9391 8.025C13.1672 7.57969 11.6625 7.21875 11.5875 7.22344C11.5172 7.22344 11.4328 7.2375 11.4047 7.25156ZM6.54375 8.11406C6.4125 8.20781 6.4125 8.2125 6.41719 8.77031C6.42187 9.075 6.44063 9.37031 6.46875 9.42188C6.49219 9.47344 6.59062 9.53438 6.67969 9.5625C6.80625 9.6 6.87656 9.59531 6.98438 9.53906C7.07812 9.49219 7.14375 9.4125 7.17656 9.29531C7.20938 9.19219 7.22344 8.92969 7.21406 8.68594C7.19531 8.30625 7.18125 8.24531 7.07812 8.1375C7 8.05625 6.9125 8.01562 6.81562 8.01562C6.73594 8.01562 6.61406 8.05781 6.54375 8.11406ZM8.13281 8.13281C8.025 8.24063 8.02031 8.27812 8.02031 8.79844C8.02031 9.15938 8.03906 9.37969 8.07656 9.43125C8.10938 9.47344 8.19375 9.53438 8.27344 9.5625C8.38594 9.60469 8.44219 9.60469 8.56875 9.54375C8.67656 9.4875 8.73281 9.41719 8.77031 9.29531C8.79844 9.19688 8.8125 8.925 8.80313 8.68594C8.78906 8.30625 8.775 8.24531 8.67188 8.1375C8.59219 8.05313 8.50781 8.01562 8.4 8.01562C8.30156 8.01562 8.20781 8.05781 8.13281 8.13281ZM9.72656 8.13281C9.61875 8.24063 9.61406 8.27812 9.60938 8.79844C9.60938 9.3375 9.60938 9.35625 9.73125 9.46875C9.81094 9.54844 9.9 9.58594 10.0125 9.58125C10.1156 9.58125 10.2141 9.54375 10.2797 9.47812C10.3688 9.38437 10.3828 9.31406 10.3969 8.89219C10.4062 8.62969 10.4016 8.36719 10.3875 8.31094C10.3734 8.25 10.3125 8.16094 10.2563 8.10938C10.1906 8.05313 10.0828 8.01562 9.99375 8.01562C9.89062 8.01562 9.80156 8.05313 9.72656 8.13281ZM8.13281 10.5234C8.025 10.6313 8.02031 10.6687 8.01562 11.2031C8.01562 11.7047 8.025 11.775 8.10938 11.8594C8.16094 11.9109 8.25938 11.9672 8.33438 11.9813C8.40938 12 8.50781 11.9859 8.57812 11.9484C8.64375 11.9109 8.72344 11.8266 8.75625 11.7656C8.79844 11.6859 8.8125 11.4844 8.80313 11.1422C8.78906 10.65 8.78438 10.6266 8.6625 10.5187C8.58281 10.4531 8.47031 10.4062 8.39062 10.4062C8.29688 10.4062 8.20312 10.4484 8.13281 10.5234ZM9.72656 10.5281C9.6 10.65 9.59531 10.6594 9.6 11.1984C9.60469 11.6719 9.61875 11.7563 9.70312 11.85C9.75469 11.9062 9.85313 11.9672 9.92813 11.9813C10.0031 12 10.1016 11.9859 10.1719 11.9484C10.2375 11.9109 10.3172 11.8266 10.35 11.7656C10.3922 11.6859 10.4062 11.4844 10.3969 11.1422C10.3828 10.65 10.3781 10.6266 10.2563 10.5187C10.1813 10.4578 10.0641 10.4062 9.98906 10.4062C9.90938 10.4062 9.80625 10.4531 9.72656 10.5281ZM12.9375 10.5422C12.8062 10.6781 12.8063 10.6922 12.8016 11.1984C12.7969 11.7141 12.7969 11.7188 12.9375 11.8594C13.0125 11.9344 13.1203 12 13.1719 12C13.2234 12 13.3125 11.9766 13.3734 11.9438C13.4297 11.9156 13.5 11.8594 13.5328 11.8172C13.5703 11.7703 13.5938 11.55 13.5938 11.2031C13.5984 10.6734 13.5937 10.6594 13.4672 10.5328C13.3828 10.4484 13.2891 10.4016 13.2047 10.4062C13.1203 10.4062 13.0219 10.4578 12.9375 10.5422ZM14.5453 10.5234C14.4234 10.6313 14.4141 10.6547 14.4 11.1422C14.3906 11.4891 14.4047 11.6859 14.4469 11.7656C14.4797 11.8266 14.5594 11.9109 14.625 11.9484C14.6953 11.9859 14.7937 12 14.8734 11.9813C14.9437 11.9672 15.0422 11.9062 15.0938 11.85C15.1781 11.7563 15.1875 11.6766 15.1875 11.1938C15.1875 10.65 15.1828 10.6406 15.0609 10.5234C14.9859 10.4531 14.8734 10.4016 14.8031 10.4062C14.7328 10.4062 14.6203 10.4578 14.5453 10.5234ZM16.1391 10.5187C16.0078 10.6312 16.0078 10.6359 16.0078 11.2031C16.0078 11.7656 16.0078 11.775 16.1391 11.8875C16.2094 11.9484 16.3078 12 16.3594 12C16.4109 12 16.5094 11.9719 16.5844 11.9344C16.6547 11.9016 16.725 11.8359 16.7484 11.7938C16.7672 11.7516 16.7812 11.475 16.7812 11.1797C16.7812 10.6687 16.7766 10.6359 16.6641 10.5234C16.5938 10.4531 16.4953 10.4062 16.4109 10.4062C16.3313 10.4062 16.2141 10.4531 16.1391 10.5187ZM1.74844 11.3156L1.61719 11.4281V14.1469C1.81406 14.3531 1.89844 14.3906 2.00625 14.3906C2.10938 14.3906 2.19844 14.3484 2.27344 14.2734L2.39062 14.1562V12H6.42188C6.42188 19.8469 6.44062 22.1625 6.46406 22.2094C6.48281 22.2516 6.5625 22.3172 6.6375 22.3547C6.75469 22.4062 6.79687 22.4062 6.93281 22.3547C7.04219 22.3109 7.11719 22.2391 7.15781 22.1391C7.20469 22.0125 7.21875 20.9906 7.21875 16.8047C7.21875 12.3047 7.20937 11.6016 7.14844 11.4609C7.11094 11.3719 7.03594 11.2734 6.98438 11.25C6.92344 11.2219 5.9625 11.2031 4.3875 11.2031H1.87969L1.74844 11.3156ZM3.43594 12.8578C3.37969 12.8906 3.3 12.9656 3.25781 13.0312C3.20156 13.125 3.1875 13.2562 3.19687 13.6547C3.21094 14.1422 3.21563 14.1703 3.34219 14.2781C3.41719 14.3438 3.52969 14.3906 3.61406 14.3906C3.70312 14.3906 3.79688 14.3484 3.87187 14.2734C3.97969 14.1609 3.98438 14.1281 3.98438 13.6031C3.98438 13.2469 3.96094 13.0266 3.92344 12.9797C3.89531 12.9375 3.82031 12.8813 3.76406 12.8484C3.70313 12.8203 3.62813 12.7969 3.6 12.7969C3.56719 12.7969 3.49219 12.825 3.43594 12.8578ZM5.03438 12.8438C4.98281 12.8672 4.89844 12.9656 4.85625 13.0641C4.78594 13.2047 4.77656 13.3312 4.78594 13.7016C4.80469 14.1375 4.81406 14.1703 4.93594 14.2781C5.01094 14.3438 5.12344 14.3906 5.20781 14.3906C5.29688 14.3906 5.39062 14.3484 5.46562 14.2734C5.57344 14.1609 5.57812 14.1281 5.57812 13.6172C5.57812 13.3219 5.56406 13.0406 5.54531 12.9984C5.52188 12.9562 5.45156 12.8953 5.38125 12.8578C5.30625 12.825 5.22188 12.7969 5.19375 12.7969C5.16094 12.8016 5.09063 12.8203 5.03438 12.8438ZM8.22656 12.8531C8.175 12.8813 8.10938 12.9375 8.07656 12.9797C8.03906 13.0266 8.02031 13.2469 8.01562 13.6031C8.01562 14.1328 8.02031 14.1609 8.13281 14.2734C8.20781 14.3438 8.30156 14.3906 8.39062 14.3906C8.475 14.3906 8.5875 14.3438 8.6625 14.2781C8.78906 14.1656 8.78906 14.1562 8.78906 13.5984C8.78906 13.0969 8.77969 13.0219 8.69531 12.9375C8.64375 12.8859 8.54062 12.8344 8.46094 12.8203C8.38594 12.8062 8.27812 12.8203 8.22656 12.8531ZM9.82031 12.8531C9.76875 12.8813 9.70312 12.9375 9.67031 12.9797C9.63281 13.0266 9.61406 13.2469 9.60938 13.6031C9.60938 14.1328 9.61406 14.1609 9.72656 14.2734C9.80156 14.3484 9.9 14.3906 9.99844 14.3906C10.1016 14.3906 10.1859 14.3531 10.2656 14.2687C10.3781 14.1562 10.3828 14.1234 10.3828 13.5891C10.3828 13.0969 10.3734 13.0219 10.2891 12.9375C10.2375 12.8859 10.1344 12.8344 10.0547 12.8203C9.97969 12.8062 9.87187 12.8203 9.82031 12.8531ZM12.9375 12.9328C12.8109 13.0641 12.8063 13.0875 12.8016 13.5656C12.7969 13.8562 12.8203 14.1047 12.8531 14.1656C12.8813 14.2266 12.9422 14.2969 12.9797 14.3297C13.0219 14.3625 13.1203 14.3859 13.2 14.3906C13.2984 14.3906 13.3875 14.3484 13.4719 14.2594C13.5938 14.1375 13.5984 14.1141 13.5938 13.6031C13.5938 13.0828 13.5938 13.0781 13.4531 12.9375C13.3687 12.8531 13.2656 12.7969 13.1906 12.7969C13.1203 12.7969 13.0172 12.8531 12.9375 12.9328ZM14.6391 12.8578C14.5828 12.8906 14.5031 12.9656 14.4609 13.0312C14.4047 13.125 14.3906 13.2563 14.4 13.65C14.4141 14.1094 14.4234 14.1562 14.5312 14.2687C14.6109 14.3531 14.6953 14.3906 14.8031 14.3906C14.9062 14.3906 14.9953 14.3484 15.075 14.2734C15.1828 14.1609 15.1875 14.1281 15.1875 13.6031C15.1875 13.2469 15.1641 13.0266 15.1266 12.9797C15.0984 12.9375 15.0234 12.8813 14.9672 12.8484C14.9062 12.8203 14.8312 12.7969 14.8031 12.7969C14.7703 12.7969 14.6953 12.825 14.6391 12.8578ZM16.2375 12.8438C16.1859 12.8672 16.1016 12.9656 16.0594 13.0641C15.9891 13.2047 15.9797 13.3312 15.9891 13.7016C16.0078 14.1375 16.0172 14.1703 16.1391 14.2781C16.2141 14.3438 16.3266 14.3906 16.4109 14.3906C16.5 14.3906 16.5938 14.3484 16.6688 14.2734C16.7766 14.1609 16.7812 14.1281 16.7812 13.6172C16.7812 13.3219 16.7672 13.0406 16.7484 12.9984C16.725 12.9562 16.6547 12.8953 16.5844 12.8578C16.5094 12.825 16.425 12.7969 16.3969 12.7969C16.3641 12.8016 16.2937 12.8203 16.2375 12.8438ZM19.4297 12.8484C19.3781 12.8766 19.3078 12.9375 19.275 12.9797C19.2375 13.0312 19.2188 13.2328 19.2188 13.6031C19.2188 14.1281 19.2234 14.1609 19.3359 14.2734C19.4109 14.3438 19.5047 14.3906 19.5938 14.3906C19.6781 14.3906 19.7906 14.3438 19.8656 14.2781C19.9875 14.1703 19.9922 14.1375 20.0109 13.7016C20.0203 13.3547 20.0063 13.2 19.95 13.0641C19.9078 12.9656 19.8234 12.8719 19.7578 12.8438C19.6922 12.8156 19.6125 12.7969 19.5844 12.7969C19.5516 12.7969 19.4813 12.8203 19.4297 12.8484ZM21.0234 12.8531C20.9719 12.8813 20.9062 12.9375 20.8734 12.9797C20.8359 13.0266 20.8172 13.2469 20.8125 13.6031C20.8125 14.1328 20.8172 14.1609 20.9297 14.2734C21.0047 14.3484 21.1031 14.3906 21.2016 14.3906C21.3047 14.3906 21.3891 14.3531 21.4688 14.2687C21.5812 14.1562 21.5859 14.1234 21.5859 13.5891C21.5859 13.0969 21.5766 13.0219 21.4922 12.9375C21.4406 12.8859 21.3375 12.8344 21.2578 12.8203C21.1828 12.8062 21.075 12.8203 21.0234 12.8531ZM5.02969 15.2578C4.91719 15.3094 4.86094 15.375 4.82344 15.5016C4.79063 15.6 4.77656 15.8672 4.78594 16.1109C4.80469 16.4906 4.81875 16.5516 4.92188 16.6594C5.00625 16.7484 5.08594 16.7812 5.20312 16.7812C5.3125 16.7812 5.40156 16.7469 5.47031 16.6781C5.56875 16.5797 5.57812 16.5234 5.57812 16.0078C5.57812 15.5063 5.56875 15.4313 5.48438 15.3375C5.43281 15.2813 5.37187 15.2344 5.34375 15.2344C5.32031 15.2344 5.26875 15.225 5.24063 15.2109C5.20781 15.2016 5.10938 15.2203 5.02969 15.2578ZM8.29688 15.2203C8.25937 15.2344 8.17969 15.2906 8.11875 15.3469C8.02031 15.4359 8.01562 15.4828 8.01562 15.9938C8.01562 16.5188 8.02031 16.5516 8.13281 16.6641C8.20781 16.7391 8.30625 16.7812 8.40469 16.7812C8.50781 16.7812 8.59219 16.7437 8.67188 16.6594C8.775 16.5516 8.78906 16.4906 8.80781 16.1109C8.8125 15.8719 8.79844 15.6 8.77031 15.5016C8.73281 15.3703 8.68125 15.3094 8.55469 15.2578C8.46562 15.2203 8.38594 15.1875 8.38125 15.1922C8.37187 15.1922 8.33438 15.2063 8.29688 15.2203ZM9.8625 15.2344C9.80625 15.2578 9.72656 15.3234 9.68438 15.3844C9.62813 15.4688 9.60938 15.6094 9.60938 16.0172C9.60938 16.5188 9.61406 16.5516 9.72656 16.6641C9.80469 16.7422 9.89531 16.7812 9.99844 16.7812C10.0781 16.7766 10.1813 16.7531 10.2234 16.7203C10.2656 16.6875 10.3219 16.6172 10.35 16.5563C10.3828 16.5 10.4062 16.2563 10.4062 16.0078C10.4062 15.7641 10.3875 15.5109 10.3594 15.4453C10.3359 15.3797 10.2375 15.2953 10.1484 15.2578C10.0594 15.2203 9.97969 15.1875 9.975 15.1875C9.96562 15.1922 9.91406 15.2109 9.8625 15.2344ZM13.0453 15.2438C12.9891 15.2813 12.9094 15.3562 12.8719 15.4219C12.8203 15.5063 12.7969 15.6656 12.7969 15.9938C12.7969 16.2891 12.8203 16.5 12.8625 16.5797C12.8953 16.65 12.9609 16.725 13.0031 16.7438C13.0453 16.7625 13.1438 16.7812 13.2234 16.7812C13.3125 16.7812 13.4062 16.7391 13.4813 16.6641C13.5891 16.5516 13.5938 16.5187 13.5938 16.0078C13.5938 15.5156 13.5844 15.4594 13.4906 15.3516C13.4297 15.2906 13.3313 15.225 13.2656 15.2109C13.2 15.1969 13.1016 15.2109 13.0453 15.2438ZM14.6484 15.2531C14.5734 15.2859 14.4797 15.3703 14.4516 15.4359C14.4141 15.5062 14.3906 15.7453 14.3906 15.9844C14.3906 16.2141 14.4141 16.4625 14.4422 16.5328C14.4703 16.6031 14.5266 16.6875 14.5734 16.7203C14.6156 16.7531 14.7187 16.7766 14.8031 16.7812C14.9062 16.7812 14.9953 16.7437 15.075 16.6641C15.1828 16.5516 15.1875 16.5141 15.1875 15.9938C15.1922 15.4828 15.1828 15.4359 15.0844 15.3469C15.0234 15.2906 14.9344 15.2344 14.8828 15.2156C14.8313 15.2016 14.7281 15.2203 14.6484 15.2531ZM16.2328 15.2578C16.1203 15.3094 16.0641 15.375 16.0266 15.5016C15.9984 15.6 15.9844 15.8719 15.9938 16.1109C16.0078 16.4906 16.0219 16.5516 16.125 16.6594C16.2094 16.7484 16.2891 16.7812 16.4062 16.7812C16.5156 16.7812 16.6047 16.7469 16.6734 16.6781C16.7719 16.5797 16.7812 16.5234 16.7812 16.0078C16.7859 15.4828 16.7766 15.4359 16.6781 15.3469C16.6172 15.2906 16.5281 15.2344 16.4766 15.2156C16.425 15.2016 16.3125 15.2203 16.2328 15.2578ZM19.5 15.2203C19.4625 15.2344 19.3828 15.2906 19.3219 15.3469C19.2234 15.4359 19.2188 15.4828 19.2188 16.0078C19.2188 16.5328 19.2234 16.575 19.3219 16.6734C19.3922 16.7391 19.4906 16.7812 19.5938 16.7812C19.7109 16.7812 19.7906 16.7484 19.875 16.6594C19.9781 16.5516 19.9922 16.4906 20.0109 16.1109C20.0156 15.8719 20.0016 15.6 19.9734 15.5016C19.9359 15.3703 19.8844 15.3094 19.7578 15.2578C19.6688 15.2203 19.5891 15.1875 19.5844 15.1922C19.575 15.1922 19.5375 15.2063 19.5 15.2203ZM21.0938 15.2203C21.0562 15.2344 20.9766 15.2906 20.9156 15.3469C20.8172 15.4359 20.8125 15.4828 20.8125 15.9938C20.8125 16.5188 20.8172 16.5516 20.9297 16.6641C21.0078 16.7422 21.0984 16.7812 21.2016 16.7812C21.2812 16.7766 21.3891 16.7531 21.4313 16.7203C21.4734 16.6875 21.5297 16.6031 21.5578 16.5328C21.5859 16.4625 21.6094 16.2141 21.6094 15.9844C21.6094 15.7031 21.5859 15.5156 21.5391 15.4219C21.4969 15.3328 21.4125 15.2625 21.3187 15.2344C21.2344 15.2063 21.1641 15.1875 21.1641 15.1875C21.1641 15.1922 21.1313 15.2063 21.0938 15.2203ZM4.91719 17.7469C4.81406 17.8594 4.80469 17.9016 4.80469 18.3984C4.80469 18.9234 4.80938 18.9375 4.93594 19.0641C5.02969 19.1625 5.10469 19.1906 5.21719 19.1859C5.30156 19.1766 5.41406 19.125 5.475 19.0687C5.57344 18.9656 5.58281 18.9188 5.58281 18.3984C5.58281 17.8734 5.57344 17.8266 5.475 17.7328C5.40469 17.6625 5.31094 17.625 5.19844 17.625C5.08125 17.625 5.00156 17.6578 4.91719 17.7469ZM8.10938 17.7328C8.00156 17.8359 7.99688 17.8687 8.00625 18.4031C8.01094 18.9188 8.02031 18.9703 8.11875 19.0594C8.17969 19.1156 8.26875 19.1672 8.32031 19.1766C8.37187 19.1859 8.47031 19.1766 8.54531 19.1578C8.62969 19.1344 8.69531 19.0734 8.74219 18.9609C8.78438 18.8578 8.8125 18.6469 8.8125 18.4078C8.8125 18.1969 8.79375 17.9531 8.76562 17.8688C8.74219 17.7844 8.67656 17.6953 8.625 17.6719C8.57344 17.6437 8.46094 17.625 8.37656 17.625C8.27344 17.625 8.17969 17.6625 8.10938 17.7328ZM14.5922 17.6578C14.5594 17.6672 14.4984 17.7422 14.4609 17.8172C14.4141 17.9109 14.3906 18.0938 14.3906 18.3984C14.3906 18.6984 14.4141 18.8906 14.4609 18.9844C14.5031 19.0688 14.5828 19.1391 14.6625 19.1578C14.7328 19.1766 14.8313 19.1859 14.8828 19.1766C14.9344 19.1719 15.0234 19.1156 15.0844 19.05C15.1781 18.9469 15.1875 18.8906 15.1875 18.4078C15.1922 17.9531 15.1781 17.8641 15.0938 17.7516C15.0188 17.6531 14.9625 17.625 14.8266 17.6297C14.7281 17.6297 14.6203 17.6438 14.5922 17.6578ZM16.1719 17.6859C16.1344 17.7234 16.0734 17.8078 16.0453 17.8734C16.0125 17.9437 15.9844 18.1781 15.9844 18.3984C15.9844 18.6469 16.0125 18.8578 16.0547 18.9609C16.1016 19.0734 16.1672 19.1344 16.2562 19.1578C16.3266 19.1766 16.425 19.1859 16.4766 19.1766C16.5281 19.1672 16.6172 19.1156 16.6781 19.0594C16.7766 18.9656 16.7859 18.9234 16.7859 18.3984C16.7859 17.8734 16.7766 17.8266 16.6781 17.7328C16.6078 17.6625 16.5141 17.625 16.4062 17.625C16.3172 17.625 16.2094 17.6531 16.1719 17.6859ZM19.3125 17.7328C19.2047 17.8359 19.2 17.8687 19.2094 18.4031C19.2141 18.9188 19.2234 18.9703 19.3219 19.0594C19.3828 19.1156 19.4719 19.1672 19.5234 19.1766C19.575 19.1859 19.6734 19.1766 19.7484 19.1578C19.8328 19.1344 19.8984 19.0734 19.9453 18.9609C19.9922 18.8578 20.0156 18.6469 20.0156 18.3984C20.0156 18.1781 19.9922 17.9391 19.9641 17.8688C19.9359 17.7984 19.8797 17.7141 19.8375 17.6859C19.7953 17.6531 19.6828 17.625 19.5891 17.625C19.4766 17.625 19.3875 17.6578 19.3125 17.7328ZM3.32344 20.1375C3.21563 20.2547 3.21094 20.2828 3.19687 21.1078C3.18281 21.8062 3.19219 21.9938 3.25313 22.1344C3.3 22.2469 3.375 22.3312 3.45938 22.3594C3.52969 22.3875 3.63281 22.4016 3.69375 22.3828C3.75 22.3687 3.83906 22.3125 3.89062 22.2516C3.97969 22.1531 3.98438 22.0875 3.98438 21.1969V20.25C3.7875 20.0531 3.69844 20.0156 3.59531 20.0156C3.4875 20.0156 3.40313 20.0531 3.32344 20.1375ZM4.91719 20.1375C4.80938 20.2547 4.80469 20.2828 4.79062 21.0844C4.78125 21.5906 4.79531 21.9797 4.82344 22.0875C4.86094 22.2141 4.91719 22.2844 5.02969 22.3406C5.10938 22.3828 5.22656 22.4016 5.2875 22.3875C5.34375 22.3734 5.43281 22.3172 5.48438 22.2656C5.57344 22.1766 5.57812 22.1109 5.57812 21.1875V20.2031C5.37656 20.0531 5.25469 20.0109 5.175 20.0156C5.08125 20.0156 4.99219 20.0578 4.91719 20.1375ZM8.13281 20.1281C8.02031 20.2453 8.02031 20.2547 8.01562 21.1969C8.01562 22.0875 8.02031 22.1531 8.10938 22.2516C8.16094 22.3125 8.25 22.3687 8.31094 22.3828C8.36719 22.4016 8.47031 22.3875 8.54531 22.3594C8.625 22.3312 8.7 22.2469 8.74688 22.1344C8.80781 21.9938 8.81719 21.8062 8.80313 21.1078C8.78906 20.2734 8.78906 20.2547 8.67188 20.1328C8.59219 20.0484 8.50781 20.0109 8.4 20.0156C8.30156 20.0156 8.20781 20.0531 8.13281 20.1281ZM14.5781 20.0766C14.5406 20.1141 14.4797 20.1984 14.4516 20.2641C14.4094 20.3484 14.3906 20.6578 14.3906 21.2203C14.3906 21.7969 14.4094 22.0922 14.4516 22.1719C14.4844 22.2375 14.5734 22.3172 14.6484 22.35C14.7281 22.3875 14.8359 22.4016 14.8969 22.3875C14.9531 22.3734 15.0422 22.3125 15.0938 22.2516C15.1828 22.1531 15.1875 22.0875 15.1875 21.1969V20.25C14.9906 20.0531 14.9016 20.0156 14.8031 20.0156C14.7187 20.0156 14.6156 20.0437 14.5781 20.0766ZM16.1203 20.1375C16.0125 20.2547 16.0078 20.2828 15.9938 21.0844C15.9844 21.5859 15.9984 21.9844 16.0266 22.0875C16.0641 22.2141 16.1203 22.2844 16.2328 22.3406C16.3125 22.3828 16.4297 22.4016 16.4906 22.3875C16.5469 22.3734 16.6359 22.3125 16.6875 22.2516C16.7766 22.1531 16.7812 22.0875 16.7812 21.1969V20.25C16.5844 20.0531 16.4953 20.0156 16.3922 20.0156C16.2844 20.0156 16.2 20.0531 16.1203 20.1375ZM19.3359 20.1281C19.2234 20.2453 19.2234 20.2547 19.2188 21.1969C19.2188 22.0875 19.2234 22.1531 19.3125 22.2516C19.3641 22.3125 19.4531 22.3734 19.5141 22.3875C19.5703 22.4016 19.6875 22.3828 19.7719 22.3406C19.8797 22.2844 19.9359 22.2141 19.9734 22.0875C20.0016 21.9844 20.0156 21.5859 20.0062 21.0844C19.9922 20.2734 19.9922 20.2547 19.875 20.1328C19.7953 20.0484 19.7109 20.0109 19.6031 20.0156C19.5047 20.0156 19.4109 20.0531 19.3359 20.1281Z" fill="#141414"/>
</svg>
